<svg width="541" height="426" viewBox="0 0 541 426" fill="none" xmlns="http://www.w3.org/2000/svg">
<path opacity="0.2" d="M296.909 138.379L236.547 106.946C223.163 99.9087 201.117 99.9087 187.47 106.946L74.8816 165.12C61.2346 172.157 61.2346 183.651 74.6192 190.454C97.4518 202.183 119.76 213.911 196.918 254.023L217.389 204.528L296.647 163.947C310.294 156.91 310.556 145.416 296.909 138.379Z" fill="#0E151B"/>
<path d="M302.943 119.377C302.943 130.167 294.544 131.34 213.449 173.094L192.978 222.589C63.856 155.501 60.4443 156.205 60.4443 146.353C60.4443 174.502 45.2225 160.193 192.978 236.664L213.449 187.169C312.391 136.032 302.943 147.291 302.943 119.377Z" fill="#905AC6"/>
<path d="M292.715 106.711L232.353 75.2779C218.968 68.2407 196.923 68.2407 183.276 75.2779L70.4246 133.452C56.7775 140.489 56.7775 151.983 70.1622 158.786C117.402 183.416 74.6237 161.132 192.461 222.355L212.932 172.86L292.19 132.045C306.099 125.007 306.362 113.748 292.715 106.711Z" fill="#4AD688"/>
<path d="M139.969 171.922L149.154 176.848L269.879 114.686L260.693 109.76L139.969 171.922Z" fill="white"/>
<path d="M115.562 159.257L124.748 164.183L245.21 101.786L236.024 97.0947L115.562 159.257Z" fill="white"/>
<path d="M91.1523 146.589L100.338 151.28L220.8 89.1182L211.614 84.4268L91.1523 146.589Z" fill="white"/>
<path opacity="0.2" d="M470.901 239.478L410.539 208.045C397.155 201.008 375.109 201.008 361.462 208.045L248.874 266.22C235.227 273.257 235.227 284.751 248.611 291.554C271.444 303.282 293.752 315.011 370.91 355.123L391.381 305.628L470.639 264.812C484.286 257.775 484.286 246.516 470.901 239.478Z" fill="#0E151B"/>
<path d="M476.677 220.244C476.677 231.035 468.279 232.207 387.184 273.961L366.713 323.456C237.59 256.368 234.179 257.072 234.179 247.22C234.179 275.369 218.957 261.06 366.713 337.531L387.184 288.036C486.387 237.133 476.677 248.158 476.677 220.244Z" fill="#905AC6"/>
<path d="M466.706 207.811L406.344 176.378C392.959 169.341 370.914 169.341 357.267 176.378L244.679 234.553C231.031 241.59 231.031 253.084 244.416 259.887C291.656 284.517 248.878 262.232 366.715 323.456L387.186 273.961L466.444 233.145C480.091 226.108 480.091 214.849 466.706 207.811Z" fill="#4AD688"/>
<path d="M313.961 273.022L323.146 277.714L443.608 215.552L434.423 210.86L313.961 273.022Z" fill="white"/>
<path d="M289.551 260.355L298.736 265.047L419.198 202.885L410.013 198.193L289.551 260.355Z" fill="white"/>
<path d="M264.887 247.688L274.072 252.379L394.797 190.217L385.611 185.291L264.887 247.688Z" fill="white"/>
</svg>
