<?xml version="1.0" encoding="utf-8"?><svg viewBox="0 0 451 450" xmlns="http://www.w3.org/2000/svg" xmlns:xlink="http://www.w3.org/1999/xlink"><style>:root>svg{display:none}:root>svg:target{display:block}</style><svg viewBox="0 0 451 450" id="404" xmlns="http://www.w3.org/2000/svg"><path d="M300.816 355.722l-32.655-162.641a7.938 7.938 0 00-9.343-6.216l-82.937 16.643a7.935 7.935 0 00-6.214 9.34l28.861 143.676 3.794 18.926a7.935 7.935 0 007.759 6.358 8.34 8.34 0 001.58 0l82.938-16.644a7.94 7.94 0 006.216-9.446l.001.004zM177.252 210.393l82.938-16.713a.912.912 0 01.912.737l28.09 140.626-84.446 16.644-28.09-140.45a.916.916 0 01.599-.843l-.003-.001zm115.875 147.753l-82.833 16.678a.907.907 0 01-.668 0 .887.887 0 01-.385-.561l-3.091-15.45 84.759-16.678 3.054 15.133h.003a.916.916 0 01-.74.912l-.099-.034z"/><path d="M252.108 351.228a7.482 7.482 0 00-8.48 10.909 7.474 7.474 0 007.427 3.725 7.48 7.48 0 001.053-14.634zm-2.107 7.656a.46.46 0 01-.316-.562.532.532 0 01.492-.316.525.525 0 01.317.561.456.456 0 01-.527.317h.034zM213.914 211.942h.702l11.694-2.351h-.004a3.578 3.578 0 10-1.37-7.023l-11.693 2.351h.003a3.53 3.53 0 00.702 7.023h-.034zM207.028 293.362l5.655-8.392 8.427 5.652c.771.58 1.746.819 2.696.656a3.504 3.504 0 002.333-1.508 3.51 3.51 0 00-1.132-4.976l-8.427-5.652 5.653-8.427a3.508 3.508 0 00-1.073-4.706 3.507 3.507 0 00-4.755.809l-5.653 8.427-8.427-5.652v-.004a3.518 3.518 0 00-5.032.856 3.514 3.514 0 001.132 4.976l8.427 5.652-5.652 8.427a3.511 3.511 0 005.828 3.897v-.035zM251.025 272.295l-5.653 8.427a3.51 3.51 0 005.828 3.897l5.794-8.427 8.427 5.652c.771.58 1.746.819 2.699.656a3.506 3.506 0 002.834-4.239 3.507 3.507 0 00-1.637-2.245l-8.427-5.652 5.653-8.427a3.592 3.592 0 10-6.038-3.897l-5.653 8.427-8.392-5.656a3.517 3.517 0 00-2.699-.655 3.519 3.519 0 00-2.33 1.511 3.515 3.515 0 001.132 4.976l8.462 5.652zM261.627 300.313l-44.17 8.744a3.527 3.527 0 10.668 7.022h.668l44.169-8.881a3.578 3.578 0 10-1.37-7.022l.035.137zM204.604 450a3.507 3.507 0 01-2.925-1.574 3.507 3.507 0 01-.307-3.307 22.234 22.234 0 001.138-13.826 22.248 22.248 0 00-7.283-11.807 21.888 21.888 0 00-6.599-3.79 3.512 3.512 0 01-2.283-3.793 26.474 26.474 0 00-5.135-19.817 26.47 26.47 0 00-37.457-4.762 3.511 3.511 0 01-4.706-.317 23.354 23.354 0 00-1.824-1.721 22.094 22.094 0 00-20.507-4.213 3.504 3.504 0 01-3.931-1.439 13.873 13.873 0 00-2.671-3.126 13.77 13.77 0 00-21.068 3.512 3.507 3.507 0 01-4.985 1.125 8.075 8.075 0 00-6.53-1.125c-.73.247-1.52.247-2.248 0l-1.16-.493v.004a3.504 3.504 0 01-2.075-2.706 3.513 3.513 0 011.198-3.195l.35-.316a2.768 2.768 0 000-3.687 3.513 3.513 0 01.213-5.091c.252-.204.487-.427.703-.668a6.038 6.038 0 00-.74-8.496 5.958 5.958 0 00-1.542-.878 3.51 3.51 0 01-2.107-3.511 10.29 10.29 0 00-12.08-11.343 3.51 3.51 0 01-3.862-2.175 12.213 12.213 0 00-8.778-7.725 3.507 3.507 0 01-2.634-2.809 10.289 10.289 0 00-3.51-6.214 10.533 10.533 0 00-11.87-.984 3.511 3.511 0 01-4.775-1.229 4.107 4.107 0 00-6.461-.844 3.513 3.513 0 01-4.18.493 2.809 2.809 0 00-3.51.595 2.78 2.78 0 00-.455 2.74c.01.163.01.33 0 .493.013.21.013.42 0 .63a3.514 3.514 0 01-2.605 3.947 3.513 3.513 0 01-4.173-2.226 4.443 4.443 0 01-.21-.947 9.764 9.764 0 012.358-9.7c2.505-2.555 6.21-3.536 9.649-2.555a11.208 11.208 0 0113.063.947l.352.282a17.235 17.235 0 0122.541 11.167 18.986 18.986 0 0110.533 8.881 17.319 17.319 0 0112.24 4.822 17.294 17.294 0 015.316 12.032l1.088.809a13.05 13.05 0 014.571 8.333 13.062 13.062 0 01-2.288 9.223 9.785 9.785 0 01.774 5.477c1.273.135 2.524.43 3.721.878a21.075 21.075 0 0114.305-7.477 21.06 21.06 0 0115.4 4.844 19.05 19.05 0 012.564 2.633 29.042 29.042 0 0124.579 6.179 33.681 33.681 0 0139.747 2.423 33.286 33.286 0 0111.938 27.633 28.657 28.657 0 016.144 3.934 29.295 29.295 0 019.59 15.582 29.301 29.301 0 01-1.514 18.23 3.507 3.507 0 01-3.088 2.038h.001zM313.874 450a3.503 3.503 0 01-2.878-1.511 18.385 18.385 0 01-3.164-12.662 18.402 18.402 0 0118.225-16.234c.965.016 1.928.101 2.881.245a25.14 25.14 0 0119.311-9.34 29.081 29.081 0 0110.447-14.53 29.064 29.064 0 0116.975-5.659 28.708 28.708 0 019.48 1.58 21.628 21.628 0 0119.347-11.973c1.74.019 3.47.232 5.163.631a15.576 15.576 0 014.941-10.236 15.598 15.598 0 0110.578-4.161 15.46 15.46 0 0111.481 5.129 12.04 12.04 0 0111.201-1.827 3.523 3.523 0 011.95 4.583 3.522 3.522 0 01-4.583 1.947c-.985-.386-2.809-.527-7.233 2.984a3.508 3.508 0 01-5.301-1.122 8.533 8.533 0 00-15.522 7.022 3.509 3.509 0 01-5.091 4.283 14.538 14.538 0 00-7.584-2.176 14.719 14.719 0 00-14.045 10.534 3.495 3.495 0 01-1.959 2.21 3.505 3.505 0 01-2.956-.069 21.674 21.674 0 00-9.76-2.317 22.018 22.018 0 00-21.384 17.557 3.512 3.512 0 01-3.828 2.774h-2.038a18.15 18.15 0 00-15.132 8.217 3.512 3.512 0 01-3.932 1.439 9.636 9.636 0 00-3.301-.561 11.367 11.367 0 00-10.076 6.01 11.373 11.373 0 00.596 11.721c.736 1.06.83 2.443.244 3.596a3.515 3.515 0 01-3.053 1.916zM316.089 61.306a179.564 179.564 0 00-20.086-5.725c-4.248-31.037-34.795-55.02-70.61-55.02h-.351c-36.025 0-65.943 23.56-70.225 54.706-36.025 7.76-56.989 21.805-56.882 40.098 0 7.866 6.706 14.957 19.804 21.067 6.637 8.812 25.983 14.045 42.73 17.206h.634a3.53 3.53 0 003.828-3.195 3.53 3.53 0 00-3.198-3.828c-27.003-4.95-39.326-12.221-39.361-16.888 0-7.023 9.374-14.045 25.773-18.961 18.82-5.76 45.646-8.885 77.248-9.023 67.171-.316 103.162 15.519 103.194 27.071 0 4.74-12.499 12.183-39.994 17.556a3.57 3.57 0 001.298 7.023c17.137-3.229 36.902-8.812 43.471-17.839h.282c12.816-6.251 19.311-13.343 19.278-21.067-.107-13.167-13.171-24.755-36.834-33.182h.001zm-6.004 14.992h-.003a4.96 4.96 0 013.267-.702 31.652 31.652 0 0112.64 3.232c8.569 3.969 12.431 9.06 12.256 10.534-.947 1.053-7.34 1.404-15.907-2.565-8.569-3.966-12.5-9.233-12.256-10.5h.003zm5.759-7.584c-5.618-.526-10.323.737-12.114 4.634-.877 1.897-1.614 5.9 3.512 11.236l.702.667c-17.274-5.9-41.574-9.655-70.225-10.533l1.546-.492c7.022-2.775 8.182-6.74 8.182-8.885-.003-2.138-.988-5.931-8.292-8.6a30.559 30.559 0 00-3.088-.946c29.952.702 57.301 4.984 77.667 12.22l2.11.7zm-92.062-7.477c10.183 0 15.907 2.985 16.571 4.283-.668 1.297-6.461 4.389-16.785 4.423h-.244c-10.534 0-16.187-3.16-16.644-4.179.42-1.229 6.251-4.458 16.819-4.53l.283.003zm1.229-53.653c31.601 0 58.603 19.98 63.622 46.455-20.347-3.765-41-5.6-61.692-5.48h-1.755a365.852 365.852 0 00-63.202 5.232c5.125-26.437 31.425-46.207 63.026-46.207h.001zM124.729 87.606c-8.533 4.038-14.923 3.72-15.869 2.702-.175-1.37 3.511-6.53 12.149-10.534 8.637-4.003 15.064-3.721 15.869-2.74.279 1.301-3.511 6.534-12.149 10.572zm-19.628 8.602a12.467 12.467 0 007.022 1.756h1.123a35.107 35.107 0 008.85-1.79 19.265 19.265 0 00-6.568 11.06c-6.004-3.652-9.797-7.446-10.427-10.991v-.035zm41.013-12.183a120.205 120.205 0 00-7.408 2.565c4.213-4.038 6.427-8.568 4.564-12.572-.877-1.896-3.511-5.022-10.778-4.633h-1.122c17.38-7.023 43.539-12.396 79.319-13.625-.984.282-1.966.56-2.843.912-7.023 2.774-8.183 6.74-8.183 8.884 0 4.53 4.179 7.584 9.939 9.374h-.007a258.832 258.832 0 00-63.484 9.092l.003.003zm189.15 22.228v-.004a18.522 18.522 0 00-6.462-10.007c1.674.386 3.377.633 5.092.737h.946c6.565 0 8.954-2.95 9.797-4.775a7.017 7.017 0 00.561-1.896c.421 1.21.646 2.476.668 3.758 0 3.897-3.756 8.145-10.603 12.218l.001-.031z"/><path d="M261.169 122.367a136.568 136.568 0 01-35.78 4.213 133.213 133.213 0 01-36.8-4.248 3.502 3.502 0 00-2.677.236 3.516 3.516 0 00.571 6.47 136.775 136.775 0 0038.028 4.565h.912a143.488 143.488 0 0037.605-4.496 3.512 3.512 0 002.37-4.37 3.514 3.514 0 00-4.37-2.37h.141z"/><path d="M276.618 117.166c-.702-4.599-6.075-8.11-16.571-10.533h-.003a152.261 152.261 0 00-34.621-3.512c-18.258 0-48.596 3.195-50.947 14.045l-58.355 243.965a3.52 3.52 0 00.413 2.665 3.516 3.516 0 002.182 1.583h.809a3.512 3.512 0 003.512-2.702l58.393-244.029c1.58-2.95 17.556-8.286 44.135-8.393h.878c25.738 0 41.432 4.985 43.222 7.759l69.454 284.415a3.509 3.509 0 003.511 2.668h.843a3.511 3.511 0 002.562-4.248l-69.417-283.683zM365.246 325.313a9.16 9.16 0 01-8.468-5.659 9.159 9.159 0 011.988-9.985 9.159 9.159 0 019.985-1.987 9.16 9.16 0 015.658 8.468c-.018 5.05-4.113 9.145-9.163 9.163zm0-11.343a2.14 2.14 0 00-1.514 3.655 2.14 2.14 0 003.655-1.514 2.142 2.142 0 00-2.141-2.141zM57.027 177.913a9.168 9.168 0 01-8.468-5.656 9.168 9.168 0 011.988-9.988 9.17 9.17 0 019.988-1.987 9.168 9.168 0 015.656 8.467 9.197 9.197 0 01-9.164 9.164zm0-11.343v.003a2.143 2.143 0 00-1.514 3.656 2.14 2.14 0 003.656-1.514 2.14 2.14 0 00-2.142-2.107v-.038zM429.741 146.701a3.511 3.511 0 01-3.512-3.054c-.771-5.686-1.931-12.499-2.633-14.992a108.648 108.648 0 00-11.377-2.53 3.51 3.51 0 110-7.022 107.63 107.63 0 0011.377-2.527c.702-2.458 1.862-9.27 2.633-14.992v-.003a3.512 3.512 0 017.023 0c.771 5.725 1.931 12.499 2.633 14.992v.003a108.401 108.401 0 0011.378 2.527 3.511 3.511 0 010 7.022c-3.835.64-7.634 1.483-11.378 2.53-.702 2.458-1.862 9.271-2.633 14.992a3.51 3.51 0 01-3.511 3.054zm-2.248-23.983v.003a4.29 4.29 0 011.335.912c.398.386.709.853.913 1.37.203-.517.514-.984.912-1.37a4.29 4.29 0 011.335-.912 4.29 4.29 0 01-1.335-.912 3.887 3.887 0 01-.912-1.37 3.904 3.904 0 01-.913 1.37 4.29 4.29 0 01-1.335.877v.032zM29.074 61.867a3.512 3.512 0 01-3.511-2.95 151.2 151.2 0 00-4.145-19.732 123.086 123.086 0 00-17.907-4.53 3.511 3.511 0 010-7.023 123.051 123.051 0 0017.907-4.492c1.831-6.443 3.226-13.001 4.18-19.629A3.51 3.51 0 0129.107 0a3.51 3.51 0 013.512 3.511 149.692 149.692 0 004.179 19.767 122.666 122.666 0 0017.907 4.495 3.511 3.511 0 010 7.023 123.837 123.837 0 00-17.98 4.389 151.252 151.252 0 00-4.175 19.77 3.509 3.509 0 01-3.477 2.912zm-9.236-30.651c5.477 1.614 6.427 2.633 6.812 3.091.386.458 1.16 1.264 2.424 5.97 1.263-4.706 2.072-5.584 2.423-5.97.351-.386 1.37-1.473 6.813-3.091-5.446-1.618-6.393-2.565-6.813-3.091-.42-.527-1.16-1.264-2.423-5.97-1.264 4.706-2.072 5.584-2.424 5.97-.35.385-1.404 1.473-6.812 3.09zM347.686 44.417a9.162 9.162 0 01-6.48-15.643 9.16 9.16 0 019.985-1.988 9.161 9.161 0 015.659 8.468c-.019 5.05-4.114 9.145-9.164 9.164zm0-11.342a2.142 2.142 0 00-1.514 3.655 2.141 2.141 0 101.514-3.655z"/></svg><svg viewBox="0 0 17 17" id="close" xmlns="http://www.w3.org/2000/svg"><path d="M13 4.906L12.094 4 8.5 7.594 4.906 4 4 4.906 7.594 8.5 4 12.094l.906.906L8.5 9.406 12.094 13l.906-.906L9.406 8.5 13 4.906z"/></svg><svg viewBox="0 0 28 29" id="edit" xmlns="http://www.w3.org/2000/svg"><path d="M23.228.012a.468.468 0 00-.233.13L2.463 20.675a.47.47 0 00-.102.175L.028 27.382a.466.466 0 00.598.598l6.533-2.333a.465.465 0 00.174-.117L27.865 4.998a.467.467 0 000-.656l-4.2-4.2a.467.467 0 00-.437-.13zm.102 1.123l3.53 3.543-2.13 2.129-3.544-3.53 2.144-2.142zm-2.8 2.8l3.53 3.543L7.012 24.524 3.469 20.98 20.53 3.934zM2.988 21.826l3.165 3.164-4.915 1.765 1.75-4.929z"/></svg><svg viewBox="0 0 16 10" id="eye" xmlns="http://www.w3.org/2000/svg"><path d="M7.921 2.337A2.666 2.666 0 005.26 5 2.666 2.666 0 007.92 7.662 2.666 2.666 0 0010.584 5 2.666 2.666 0 007.92 2.337zm0 4.676A2.016 2.016 0 015.908 5c0-1.11.904-2.013 2.013-2.013 1.11 0 2.013.904 2.013 2.013S9.03 7.013 7.921 7.013z"/><path d="M14.727 3.403A8.552 8.552 0 007.92 0a8.552 8.552 0 00-6.805 3.403L.064 4.805a.33.33 0 000 .391L1.116 6.6A8.554 8.554 0 007.921 10a8.55 8.55 0 006.806-3.401l1.052-1.403a.33.33 0 000-.39l-1.052-1.403zm-.52 2.805A7.894 7.894 0 017.921 9.35a7.893 7.893 0 01-6.285-3.143L.729 5l.907-1.208A7.897 7.897 0 017.92.65c2.46 0 4.81 1.174 6.286 3.143L15.114 5l-.907 1.208z"/></svg><svg viewBox="0 0 28 28" id="facebook" xmlns="http://www.w3.org/2000/svg"><g clip-path="url(#eclip0)"><path d="M18.663 4.65h2.556V.196C20.78.137 19.262 0 17.495 0c-3.685 0-6.21 2.318-6.21 6.579V10.5H7.218v4.977h4.067V28h4.986V15.478h3.903l.62-4.977H16.27V7.072c.002-1.438.389-2.423 2.393-2.423z"/></g><defs><clipPath id="eclip0"><path d="M0 0h28v28H0z"/></clipPath></defs></svg><svg viewBox="0 0 127 54" id="logo" xmlns="http://www.w3.org/2000/svg"><path d="M25.805 20.802v22.5h-.99v-21.06l-10.62 21.48-10.56-21.75v21.33h-.99v-22.5h1.41l10.14 20.88 10.23-20.88h1.38zm9.833 28.47c-2.24 0-4.01-.8-5.31-2.4v-1.53c.66 1.04 1.41 1.81 2.25 2.31.84.52 1.82.78 2.94.78 1.14 0 2.11-.24 2.91-.72.82-.48 1.44-1.14 1.86-1.98.42-.82.63-1.74.63-2.76v-2.28c-.48.94-1.21 1.67-2.19 2.19-.96.5-2.01.75-3.15.75-1.14 0-2.15-.25-3.03-.75a5.36 5.36 0 01-2.07-2.1c-.48-.9-.72-1.94-.72-3.12v-7.86h.96v7.86c0 1.08.22 2.01.66 2.79.46.76 1.06 1.34 1.8 1.74.74.4 1.55.6 2.43.6.96 0 1.85-.23 2.67-.69.82-.48 1.46-1.11 1.92-1.89.48-.8.72-1.65.72-2.55v-7.86h.96v13.08c0 1.2-.25 2.28-.75 3.24a5.4 5.4 0 01-2.13 2.31c-.94.56-2.06.84-3.36.84zm36.56-28.47h.96c1.58 0 2.74.37 3.48 1.11.74.72 1.11 1.79 1.11 3.21 0 .82-.24 1.61-.72 2.37-.48.74-1.06 1.24-1.74 1.5 1.72.28 3.05 1 3.99 2.16.94 1.16 1.41 2.68 1.41 4.56 0 1.5-.33 2.83-.99 3.99a7.007 7.007 0 01-2.73 2.67c-1.14.62-2.41.93-3.81.93h-.96v-22.5zm1.2 7.92c.96 0 1.77-.35 2.43-1.05.66-.7.99-1.56.99-2.58 0-1.14-.28-2-.84-2.58-.54-.58-1.4-.87-2.58-.87h-.24v7.08h.24zm0 13.74c1.18 0 2.25-.28 3.21-.84a6.27 6.27 0 002.28-2.4c.56-1.02.84-2.17.84-3.45 0-2.06-.55-3.61-1.65-4.65-1.08-1.06-2.64-1.59-4.68-1.59h-.24v12.93h.24zm15.55 1.11c-.94 0-1.8-.21-2.58-.63a4.95 4.95 0 01-1.86-1.83c-.46-.78-.69-1.65-.69-2.61v-17.7h.96v17.7c0 .8.18 1.52.54 2.16.38.64.89 1.15 1.53 1.53.64.36 1.34.54 2.1.54v.84zm8.614.21c-1.36 0-2.59-.33-3.69-.99a7.332 7.332 0 01-2.58-2.67 7.375 7.375 0 01-.93-3.63c0-1.28.31-2.47.93-3.57.64-1.1 1.5-1.97 2.58-2.61 1.1-.66 2.32-.99 3.66-.99 1.32 0 2.52.33 3.6.99 1.1.64 1.96 1.51 2.58 2.61.62 1.1.93 2.29.93 3.57 0 1.34-.3 2.57-.9 3.69-.6 1.1-1.44 1.98-2.52 2.64-1.06.64-2.28.96-3.66.96zm0-.84c1.14 0 2.18-.29 3.12-.87a6.07 6.07 0 002.19-2.31c.54-.98.81-2.05.81-3.21 0-1.14-.27-2.2-.81-3.18a6.239 6.239 0 00-2.22-2.34c-.94-.58-1.98-.87-3.12-.87-1.14 0-2.19.3-3.15.9-.94.58-1.69 1.36-2.25 2.34-.54.98-.81 2.04-.81 3.18 0 1.14.27 2.2.81 3.18.56.96 1.31 1.73 2.25 2.31.96.58 2.02.87 3.18.87zm21.294-21.87c-1.98 0-3.79.51-5.43 1.53-1.62 1-2.91 2.35-3.87 4.05a10.94 10.94 0 00-1.41 5.43c0 1.96.48 3.78 1.44 5.46.96 1.68 2.23 3.02 3.81 4.02 1.6.98 3.32 1.47 5.16 1.47 1.08 0 2.04-.1 2.88-.3.86-.2 1.68-.52 2.46-.96v-7.05h-7.44v-.87h8.43v7.29l.06-.03v1.11c-.96.58-1.95 1-2.97 1.26-1 .28-2.1.42-3.3.42-2.1 0-4.03-.51-5.79-1.53-1.76-1.04-3.16-2.46-4.2-4.26-1.02-1.82-1.53-3.86-1.53-6.12 0-2.18.53-4.17 1.59-5.97 1.08-1.8 2.51-3.22 4.29-4.26 1.8-1.04 3.71-1.56 5.73-1.56 1.4 0 2.51.13 3.33.39.82.24 1.77.67 2.85 1.29v1.11c-1.02-.7-1.97-1.19-2.85-1.47-.86-.3-1.94-.45-3.24-.45z"/><path d="M48.327 36.953c-2.339-2.83-4.956-5.4-7.81-7.748-2.254-1.858-4.67-3.56-7.214-5.15a85.82 85.82 0 00-3.543-2.072c-.19-.105-.372-.21-.566-.31.174.077.341.159.507.236.396.19.79.378 1.18.576.899.445 1.783.91 2.64 1.392.885.498 1.752 1.01 2.6 1.537a57.803 57.803 0 014.802 3.359c1.181.92 2.312 1.883 3.405 2.891a52.514 52.514 0 016.727 7.522 57.83 57.83 0 012.815 4.219c.432.716.881 1.41 1.33 2.105-.273-19.425-13.226-25.682-31.2-25.264 5.218 1.627 9.028 8.385 10.699 12.746 5.437 14.152 12.106 12.783 19.933 13.869-.827-1.78-1.595-3.309-1.885-3.77a55.504 55.504 0 00-4.42-6.139z"/><path d="M59.59 46.055c.134-.814.277-1.629.421-2.411-.23.095-.46.189-.69.288a61.235 61.235 0 01-.461-1.802c-.7 2.113-1.385 4.231-1.761 6.533-.586-1.097-1.238-2.128-1.9-3.152.006.472.013.944.004 1.432-.192-.03-.381-.056-.571-.083.259.557.523 1.14.78 1.72.909 2.056.39 4.007 1.888 5.04.498.342 1.471-.534 1.555-.63 1.544-1.783.26-4.064.735-6.935z"/><path d="M58.86 42.13c.336-1.018.678-2.033.987-3.071a75.36 75.36 0 012.161-6.209 68.106 68.106 0 016.002-11.622 70.846 70.846 0 013.333-4.73 75.428 75.428 0 014.935-5.777 94.338 94.338 0 012.765-2.77 71.792 71.792 0 012.863-2.606c.424-.373.858-.74 1.292-1.105.184-.152.37-.31.558-.461-.21.19-.405.38-.608.573-.345.324-.69.653-1.032.988a113.4 113.4 0 00-2.742 2.762c-2.677 2.82-5.157 5.74-7.383 8.804-2.82 3.87-5.268 7.947-7.285 12.254a72.47 72.47 0 00-3.555 9.139c-.214.67-.683 2.84-1.142 5.343 9.472-3.902 18.284-4.348 20.514-23.872.681-6.015 3.269-15.733 9.29-19.468C67.125 5.612 52.9 17.666 58.86 42.13v-.001z"/></svg><svg viewBox="0 0 10 15" id="next" xmlns="http://www.w3.org/2000/svg"><path d="M.737 13.238L6.462 7.5.737 1.763 2.5 0 10 7.5 2.5 15 .737 13.238z"/></svg><svg viewBox="0 0 16 16" id="noeye" xmlns="http://www.w3.org/2000/svg"><path d="M14.873 6.367a8.631 8.631 0 00-2.549-2.274L15.905.47 15.441 0l-3.718 3.761A8.494 8.494 0 008 2.89a8.601 8.601 0 00-6.873 3.476L.065 7.8a.34.34 0 000 .4l1.062 1.433a8.63 8.63 0 002.549 2.274L.096 15.53l.463.47 3.717-3.761c1.15.56 2.422.87 3.724.87 2.689 0 5.258-1.3 6.873-3.476L15.935 8.2a.34.34 0 000-.4l-1.062-1.433zM1.652 9.234L.736 7.999l.916-1.234A7.944 7.944 0 018 3.553c1.124 0 2.22.258 3.226.712l-1.58 1.599A2.643 2.643 0 008 5.279c-1.482 0-2.689 1.22-2.689 2.72 0 .63.222 1.204.579 1.666l-1.736 1.756a7.963 7.963 0 01-2.502-2.187zm8.38-1.235c0 1.134-.91 2.058-2.032 2.058-.442 0-.849-.148-1.183-.392l2.829-2.863c.241.339.387.75.387 1.197zM5.968 8c0-1.133.912-2.057 2.033-2.057.442 0 .849.148 1.183.392l-2.83 2.863a2.055 2.055 0 01-.386-1.198zm8.381 1.235A7.94 7.94 0 018 12.446a7.856 7.856 0 01-3.227-.712l1.58-1.6A2.643 2.643 0 008 10.72c1.482 0 2.689-1.22 2.689-2.72 0-.631-.222-1.205-.579-1.666l1.736-1.756a7.935 7.935 0 012.503 2.187l.914 1.234-.915 1.235z"/></svg><svg viewBox="0 0 10 15" id="prev" xmlns="http://www.w3.org/2000/svg"><path d="M9.262 13.238L3.537 7.5l5.725-5.737L7.5 0 0 7.5 7.5 15l1.762-1.762z"/></svg><svg viewBox="0 0 15 17" id="remove" xmlns="http://www.w3.org/2000/svg"><path d="M13.551 1.718L13.02 15.55a.92.92 0 01-.909.874H2.89a.919.919 0 01-.909-.874L1.45 1.718a.288.288 0 10-.576.022l.532 13.832C1.435 16.362 2.1 17 2.89 17h9.22c.79 0 1.455-.638 1.485-1.428l.532-13.832a.288.288 0 00-.576-.022z"/><path d="M7.212 4.61v9.797a.288.288 0 10.577 0V4.61a.288.288 0 10-.577 0zM4.043 4.619l.288 9.796a.288.288 0 10.576-.016l-.288-9.797a.288.288 0 10-.576.017zM10.382 4.601l-.289 9.797a.288.288 0 00.576.017l.289-9.797a.288.288 0 00-.576-.017zM.297 2.017h14.406a.288.288 0 100-.576H.297a.288.288 0 100 .576z"/><path d="M4.887 1.836l.308-.771c.104-.26.442-.489.72-.489h3.17c.28 0 .616.228.721.489l.308.77.535-.213-.308-.771C10.149.37 9.601 0 9.085 0h-3.17C5.402 0 4.852.372 4.66.85l-.308.772.535.214z"/></svg><svg viewBox="0 0 17 17" id="search" xmlns="http://www.w3.org/2000/svg"><path fill-rule="evenodd" clip-rule="evenodd" d="M11.958 10.957l4.834 4.834a.708.708 0 11-1.001 1.001l-4.835-4.834a6.697 6.697 0 01-4.227 1.5A6.737 6.737 0 010 6.73C0 3.02 3.019 0 6.73 0c3.71 0 6.728 3.019 6.728 6.73 0 1.6-.564 3.07-1.5 4.226zM1.417 6.729a5.318 5.318 0 005.312 5.313 5.318 5.318 0 005.312-5.313A5.318 5.318 0 006.73 1.417a5.318 5.318 0 00-5.312 5.312z"/></svg><svg viewBox="0 0 13 13" id="submit" xmlns="http://www.w3.org/2000/svg"><path d="M1.21 6.175h11.7a.65.65 0 00-.266-.253L.944.072a.65.65 0 00-.906.356.65.65 0 00-.023.359L1.21 6.175zM1.21 6.825L.029 12.214a.65.65 0 00.65.786.603.603 0 00.292-.072l11.7-5.85a.65.65 0 00.266-.253H1.211z"/></svg><svg viewBox="0 0 12 6" id="triangle" xmlns="http://www.w3.org/2000/svg"><path d="M.139 0A.139.139 0 00.04.237l5.722 5.721a.135.135 0 00.195 0L11.677.24a.14.14 0 00.03-.154A.139.139 0 0011.58 0H.14z"/></svg><svg viewBox="0 0 28 28" id="twitter" xmlns="http://www.w3.org/2000/svg"><g clip-path="url(#nclip0)"><path d="M28 5.318c-1.041.457-2.15.76-3.308.907a5.708 5.708 0 002.526-3.173 11.472 11.472 0 01-3.64 1.39 5.739 5.739 0 00-9.93 3.925c0 .455.039.892.133 1.309C9.01 9.443 4.786 7.156 1.95 3.67a5.78 5.78 0 00-.785 2.902 5.749 5.749 0 002.55 4.77 5.668 5.668 0 01-2.594-.707v.064c0 2.789 1.99 5.106 4.599 5.64a5.731 5.731 0 01-1.505.189c-.368 0-.739-.021-1.087-.098.744 2.273 2.854 3.944 5.364 3.998a11.534 11.534 0 01-7.117 2.449c-.471 0-.923-.021-1.374-.079a16.16 16.16 0 008.806 2.576c10.563 0 16.338-8.75 16.338-16.334 0-.254-.009-.5-.021-.742A11.452 11.452 0 0028 5.319z"/></g><defs><clipPath id="nclip0"><path d="M0 0h28v28H0z"/></clipPath></defs></svg><svg viewBox="0 0 28 28" id="vk" xmlns="http://www.w3.org/2000/svg"><g clip-path="url(#oclip0)"><path d="M23.234 15.2c-.453-.572-.323-.826 0-1.337.006-.006 3.743-5.17 4.128-6.92l.002-.002c.191-.638 0-1.107-.925-1.107h-3.061c-.78 0-1.139.402-1.331.853 0 0-1.56 3.73-3.764 6.15-.712.698-1.04.922-1.43.922-.19 0-.488-.224-.488-.862V6.941c0-.765-.218-1.107-.863-1.107h-4.814c-.489 0-.78.357-.78.69 0 .725 1.103.892 1.217 2.934v4.43c0 .97-.176 1.149-.567 1.149-1.04 0-3.566-3.747-5.063-8.034-.302-.832-.597-1.168-1.383-1.168H1.05c-.874 0-1.05.403-1.05.853 0 .796 1.04 4.752 4.84 9.979 2.531 3.567 6.096 5.5 9.34 5.5 1.95 0 2.187-.429 2.187-1.168 0-3.409-.176-3.73.8-3.73.453 0 1.232.224 3.052 1.944 2.08 2.04 2.422 2.954 3.587 2.954h3.061c.873 0 1.315-.429 1.06-1.276-.581-1.781-4.515-5.446-4.693-5.691z"/></g><defs><clipPath id="oclip0"><path d="M0 0h28v28H0z"/></clipPath></defs></svg></svg>