<svg width="451" height="450" viewBox="0 0 451 450" fill="none" xmlns="http://www.w3.org/2000/svg">
<path d="M300.816 355.722L268.161 193.081C267.296 188.786 263.114 186.003 258.818 186.865L175.881 203.508C171.586 204.374 168.805 208.553 169.667 212.848L198.528 356.524L202.322 375.45C203.071 379.143 206.313 381.799 210.081 381.808C210.605 381.858 211.134 381.858 211.661 381.808L294.599 365.164C296.683 364.75 298.514 363.518 299.684 361.741C300.853 359.966 301.261 357.797 300.815 355.718L300.816 355.722ZM177.252 210.393L260.19 193.68C260.632 193.671 261.018 193.984 261.102 194.417L289.192 335.043L204.746 351.687L176.656 211.237C176.662 210.861 176.9 210.525 177.255 210.394L177.252 210.393ZM293.127 358.146L210.294 374.824C210.081 374.909 209.843 374.909 209.626 374.824C209.429 374.696 209.288 374.492 209.241 374.263L206.15 358.813L290.909 342.135L293.963 357.268H293.966C293.972 357.71 293.662 358.095 293.226 358.18L293.127 358.146Z" fill="black"/>
<path d="M252.108 351.228C249.193 350.428 246.083 351.463 244.227 353.852C242.371 356.241 242.136 359.51 243.628 362.137C245.123 364.768 248.055 366.238 251.055 365.862C254.058 365.489 256.538 363.344 257.34 360.429C257.867 358.513 257.613 356.469 256.632 354.745C255.651 353.018 254.024 351.754 252.108 351.228V351.228ZM250.001 358.884C249.76 358.815 249.619 358.564 249.685 358.322C249.773 358.128 249.964 358.003 250.177 358.006C250.4 358.1 250.528 358.329 250.494 358.567C250.425 358.793 250.199 358.931 249.967 358.884H250.001Z" fill="black"/>
<path d="M213.914 211.942H214.616L226.31 209.591H226.306C228.247 209.211 229.51 207.333 229.134 205.393C228.755 203.455 226.877 202.189 224.936 202.568L213.243 204.919H213.246C212.315 205.013 211.459 205.471 210.867 206.195C210.274 206.92 209.992 207.851 210.086 208.782C210.28 210.722 212.008 212.136 213.948 211.942H213.914Z" fill="black"/>
<path d="M207.028 293.362L212.683 284.97L221.11 290.622C221.881 291.202 222.856 291.441 223.806 291.278C224.759 291.118 225.603 290.572 226.139 289.77C226.675 288.967 226.857 287.98 226.644 287.039C226.43 286.095 225.838 285.287 225.007 284.794L216.58 279.142L222.233 270.715C223.182 269.11 222.712 267.044 221.16 266.009C219.612 264.972 217.524 265.329 216.405 266.818L210.752 275.245L202.325 269.593V269.589C201.554 269.009 200.576 268.774 199.626 268.934C198.673 269.097 197.829 269.643 197.293 270.445C196.757 271.248 196.575 272.235 196.789 273.176C197.005 274.116 197.594 274.928 198.425 275.421L206.852 281.073L201.2 289.5C200.253 291.102 200.723 293.168 202.272 294.206C203.821 295.24 205.908 294.886 207.028 293.397V293.362Z" fill="black"/>
<path d="M251.025 272.295L245.372 280.722C244.422 282.324 244.892 284.39 246.441 285.428C247.993 286.462 250.081 286.108 251.2 284.619L256.994 276.192L265.421 281.844C266.192 282.424 267.167 282.663 268.12 282.5C269.07 282.34 269.913 281.794 270.449 280.992C270.985 280.189 271.17 279.202 270.954 278.261C270.741 277.317 270.148 276.509 269.317 276.016L260.89 270.364L266.543 261.937C267.621 260.269 267.142 258.043 265.474 256.968C263.806 255.893 261.58 256.372 260.505 258.04L254.852 266.467L246.46 260.811C245.689 260.231 244.714 259.996 243.761 260.156C242.811 260.319 241.967 260.865 241.431 261.667C240.895 262.47 240.71 263.457 240.927 264.398C241.14 265.338 241.732 266.15 242.563 266.643L251.025 272.295Z" fill="black"/>
<path d="M261.627 300.313L217.457 309.057C215.517 309.242 214.093 310.963 214.278 312.904C214.463 314.841 216.184 316.264 218.125 316.079H218.793L262.962 307.198C264.903 306.819 266.166 304.941 265.79 303C265.411 301.063 263.533 299.796 261.592 300.176L261.627 300.313Z" fill="black"/>
<path d="M204.604 450C203.425 450 202.328 449.407 201.679 448.426C201.027 447.445 200.914 446.203 201.372 445.119C203.215 440.752 203.616 435.905 202.51 431.293C201.403 426.681 198.851 422.546 195.227 419.486C193.265 417.847 191.032 416.564 188.628 415.696C187.063 415.129 186.114 413.548 186.345 411.903C187.358 404.877 185.512 397.736 181.21 392.086C176.912 386.434 170.523 382.747 163.478 381.853C156.437 380.957 149.33 382.929 143.753 387.324C142.336 388.443 140.301 388.309 139.047 387.007C138.47 386.402 137.862 385.826 137.223 385.286C131.529 380.527 123.827 378.944 116.716 381.073C115.23 381.515 113.634 380.929 112.785 379.634C112.054 378.465 111.155 377.411 110.114 376.508C107.007 373.768 102.831 372.574 98.7461 373.254C94.6612 373.934 91.0967 376.42 89.0463 380.02C88.5541 380.853 87.7421 381.446 86.7984 381.659C85.8548 381.872 84.8641 381.684 84.0615 381.145C82.146 379.853 79.7665 379.443 77.5312 380.02C76.8008 380.267 76.0108 380.267 75.2834 380.02L74.1235 379.527V379.531C73.0105 379.048 72.2236 378.026 72.0481 376.825C71.8694 375.624 72.3208 374.417 73.2457 373.63L73.5968 373.314C74.5342 372.263 74.5342 370.677 73.5968 369.627C72.9259 368.937 72.5686 368 72.6092 367.037C72.65 366.075 73.0826 365.169 73.81 364.536C74.0608 364.332 74.2959 364.109 74.5122 363.868C76.6504 361.319 76.318 357.516 73.7724 355.372C73.3052 355.005 72.7848 354.707 72.2299 354.494C70.8473 353.895 69.9978 352.484 70.1231 350.983C70.5119 347.735 69.3331 344.496 66.9505 342.258C64.5647 340.019 61.2605 339.048 58.0436 339.64C56.4008 339.922 54.7894 339.013 54.1812 337.465C52.7579 333.565 49.4505 330.655 45.4027 329.74C44.0421 329.411 43.0075 328.307 42.7693 326.931C42.3775 324.507 41.1328 322.303 39.2581 320.717C35.8848 317.968 31.1698 317.579 27.3889 319.733C25.7305 320.698 23.6017 320.15 22.6142 318.504C21.9747 317.4 20.8586 316.657 19.5921 316.491C18.3255 316.325 17.0558 316.758 16.1529 317.66C15.0243 318.733 13.322 318.933 11.9739 318.153C10.8108 317.488 9.34367 317.739 8.46269 318.748C7.83254 319.516 7.66012 320.56 8.00811 321.488C8.01751 321.651 8.01751 321.818 8.00811 321.981C8.02065 322.191 8.02065 322.401 8.00811 322.611C8.28713 324.401 7.15851 326.113 5.40288 326.558C3.64726 327.003 1.83835 326.04 1.23016 324.332C1.1267 324.025 1.0546 323.708 1.02011 323.385C-0.0301284 319.965 0.87277 316.24 3.37766 313.685C5.88255 311.13 9.58819 310.149 13.027 311.13C17.1339 308.603 22.3946 308.986 26.0904 312.077L26.4415 312.359C30.9058 310.691 35.8589 310.942 40.1325 313.058C44.4025 315.174 47.6065 318.962 48.9825 323.526C53.4813 325.062 57.2401 328.232 59.5162 332.407C64.0714 332.342 68.4697 334.075 71.7554 337.229C75.0441 340.383 76.9533 344.706 77.0724 349.261L78.1603 350.07C80.6777 352.174 82.308 355.149 82.7312 358.403C83.1544 361.654 82.3362 364.946 80.4426 367.626C81.2232 369.338 81.4897 371.241 81.2169 373.103C82.4897 373.238 83.7406 373.533 84.9382 373.981C88.5247 369.689 93.6726 366.999 99.2432 366.504C104.817 366.009 110.357 367.752 114.643 371.348C115.58 372.141 116.439 373.022 117.207 373.981C125.914 372.169 134.971 374.445 141.786 380.16C147.808 376.285 154.91 374.432 162.054 374.868C169.202 375.304 176.027 378.006 181.533 382.583C189.687 389.368 194.123 399.628 193.471 410.216C195.678 411.26 197.744 412.583 199.615 414.15C204.393 418.188 207.754 423.646 209.205 429.732C210.66 435.813 210.127 442.203 207.691 447.962C207.133 449.175 205.935 449.962 204.603 450L204.604 450Z" fill="black"/>
<path d="M313.874 450C312.726 449.997 311.648 449.436 310.996 448.489C308.428 444.796 307.303 440.294 307.832 435.827C308.362 431.363 310.507 427.243 313.867 424.252C317.225 421.261 321.561 419.603 326.057 419.593C327.022 419.609 327.985 419.694 328.938 419.838C333.656 413.997 340.741 410.571 348.249 410.498C350.118 404.677 353.773 399.592 358.696 395.968C363.618 392.344 369.558 390.363 375.671 390.309C378.897 390.3 382.105 390.833 385.151 391.889C386.945 388.293 389.707 385.268 393.124 383.152C396.541 381.039 400.479 379.916 404.498 379.916C406.238 379.935 407.968 380.148 409.661 380.547C409.959 376.634 411.724 372.982 414.602 370.311C417.48 367.643 421.255 366.157 425.18 366.15C429.56 366.157 433.735 368.019 436.661 371.279C439.855 368.837 444.059 368.154 447.862 369.452C449.665 370.179 450.539 372.232 449.812 374.035C449.085 375.838 447.031 376.709 445.229 375.982C444.244 375.596 442.42 375.455 437.996 378.966C437.175 379.622 436.106 379.872 435.081 379.656C434.056 379.44 433.178 378.775 432.695 377.844C430.591 373.847 425.738 372.182 421.625 374.044C417.512 375.904 415.562 380.65 417.173 384.866C417.725 386.268 417.321 387.867 416.167 388.835C415.013 389.807 413.37 389.932 412.082 389.149C409.803 387.738 407.179 386.986 404.498 386.973C401.338 386.986 398.263 388.017 395.733 389.917C393.203 391.814 391.353 394.475 390.453 397.507C390.159 398.497 389.441 399.306 388.494 399.717C387.547 400.131 386.466 400.106 385.538 399.648C382.509 398.124 379.167 397.328 375.778 397.331C370.743 397.372 365.875 399.137 361.984 402.332C358.09 405.526 355.413 409.956 354.394 414.888C354.024 416.662 352.366 417.863 350.566 417.662H348.528C342.424 417.681 336.738 420.769 333.396 425.879C332.546 427.174 330.947 427.757 329.464 427.318C328.405 426.939 327.289 426.751 326.163 426.757C321.95 426.738 318.072 429.052 316.087 432.767C314.099 436.485 314.328 440.993 316.683 444.488C317.419 445.548 317.513 446.931 316.927 448.084C316.341 449.235 315.165 449.972 313.874 450L313.874 450Z" fill="black"/>
<path d="M316.089 61.3059C309.508 59.0079 302.802 57.0987 296.003 55.5813C291.755 24.5443 261.208 0.561157 225.393 0.561157H225.042C189.017 0.561157 159.099 24.1206 154.817 55.2675C118.792 63.0268 97.8281 77.0717 97.9349 95.3647C97.9349 103.231 104.641 110.322 117.739 116.432C124.376 125.244 143.722 130.477 160.469 133.638H161.103C163.04 133.813 164.755 132.38 164.931 130.443C165.103 128.502 163.673 126.791 161.733 126.615C134.73 121.665 122.407 114.394 122.372 109.727C122.372 102.704 131.746 95.6817 148.145 90.766C166.965 85.0069 193.791 81.8815 225.393 81.7435C292.564 81.4268 328.555 97.262 328.587 108.814C328.587 113.554 316.088 120.997 288.593 126.37C286.653 126.728 285.374 128.59 285.731 130.531C286.092 132.468 287.954 133.75 289.891 133.393C307.028 130.164 326.793 124.581 333.362 115.554H333.644C346.46 109.303 352.955 102.211 352.922 94.4867C352.815 81.3197 339.751 69.7322 316.088 61.3052L316.089 61.3059ZM310.085 76.2979H310.082C311.057 75.6928 312.211 75.4452 313.349 75.5956C317.741 75.7837 322.046 76.8842 325.989 78.8278C334.558 82.7968 338.42 87.888 338.245 89.3615C337.298 90.4149 330.905 90.766 322.338 86.7971C313.769 82.8313 309.838 77.5643 310.082 76.2979H310.085ZM315.844 68.7142C310.226 68.1876 305.521 69.451 303.73 73.3478C302.853 75.2445 302.116 79.248 307.242 84.5838L307.944 85.2515C290.67 79.3514 266.37 75.5958 237.719 74.7178L239.265 74.2256C246.287 71.4511 247.447 67.4853 247.447 65.3412C247.444 63.203 246.459 59.4097 239.155 56.7416C238.142 56.3717 237.111 56.0551 236.067 55.7948C266.019 56.4971 293.368 60.7795 313.734 68.0156L315.844 68.7142ZM223.782 61.2372C233.965 61.2372 239.689 64.2218 240.353 65.5196C239.685 66.8175 233.892 69.9087 223.568 69.9431H223.324C212.79 69.9431 207.137 66.783 206.68 65.7642C207.1 64.5353 212.931 61.3061 223.499 61.2341L223.782 61.2372ZM225.011 7.5838C256.612 7.5838 283.614 27.5638 288.633 54.0389C268.286 50.2738 247.633 48.4397 226.941 48.5589H225.186C204.005 48.4711 182.86 50.2205 161.984 53.7913C167.109 27.3538 193.409 7.58412 225.01 7.58412L225.011 7.5838ZM124.729 87.6056C116.196 91.6435 109.806 91.3269 108.86 90.308C108.685 88.938 112.371 83.7777 121.009 79.7743C129.646 75.7708 136.073 76.053 136.878 77.0342C137.157 78.3353 133.367 83.5676 124.729 87.6057V87.6056ZM105.101 96.2084C107.217 97.4749 109.659 98.0862 112.123 97.964H113.246C116.262 97.7508 119.234 97.1489 122.096 96.1738C118.704 98.9985 116.387 102.902 115.528 107.234C109.524 103.582 105.731 99.7884 105.101 96.2429L105.101 96.2084ZM146.114 84.0253C143.411 84.8687 140.988 85.712 138.706 86.5898C142.919 82.5519 145.133 78.0216 143.27 74.0183C142.393 72.1216 139.759 68.996 132.492 69.3848H131.37C148.75 62.3623 174.909 56.9891 210.689 55.7596C209.705 56.0417 208.723 56.3207 207.846 56.6718C200.823 59.4463 199.663 63.4121 199.663 65.5563C199.663 70.0864 203.842 73.1399 209.602 74.9303H209.595C188.139 75.3159 166.814 78.3726 146.111 84.0218L146.114 84.0253ZM335.264 106.253V106.249C334.27 102.293 332 98.7754 328.802 96.2421C330.476 96.6277 332.179 96.8754 333.894 96.9789H334.84C341.405 96.9789 343.794 94.0288 344.637 92.2042C344.913 91.6023 345.101 90.9627 345.198 90.3075C345.619 91.5176 345.844 92.7842 345.866 94.0664C345.866 97.9633 342.11 102.211 335.263 106.284L335.264 106.253Z" fill="black"/>
<path d="M261.169 122.367C249.482 125.345 237.449 126.762 225.389 126.58C212.984 126.885 200.6 125.455 188.589 122.332C187.702 122.05 186.737 122.138 185.912 122.568C185.085 123 184.464 123.743 184.185 124.63C183.602 126.483 184.633 128.455 186.483 129.038C198.882 132.336 211.682 133.872 224.511 133.603H225.423C238.101 133.772 250.748 132.261 263.028 129.107C264.89 128.555 265.953 126.599 265.398 124.737C264.846 122.875 262.89 121.815 261.028 122.367L261.169 122.367Z" fill="black"/>
<path d="M276.618 117.166C275.916 112.567 270.543 109.056 260.047 106.633H260.044C248.676 104.143 237.061 102.965 225.423 103.121C207.165 103.121 176.827 106.316 174.476 117.166L116.121 361.131C115.898 362.037 116.049 362.997 116.534 363.796C117.024 364.593 117.807 365.163 118.716 365.379H119.525C121.19 365.423 122.654 364.295 123.037 362.677L181.43 118.648C183.01 115.698 198.986 110.362 225.565 110.255H226.443C252.181 110.255 267.875 115.24 269.665 118.014L339.119 402.429C339.514 404.034 340.978 405.147 342.63 405.097H343.473C345.351 404.63 346.499 402.73 346.035 400.849L276.618 117.166Z" fill="black"/>
<path d="M365.246 325.313C361.537 325.313 358.195 323.081 356.778 319.654C355.358 316.231 356.145 312.29 358.766 309.669C361.387 307.049 365.328 306.261 368.751 307.682C372.177 309.099 374.409 312.441 374.409 316.15C374.391 321.2 370.296 325.295 365.246 325.313L365.246 325.313ZM365.246 313.97C364.378 313.97 363.597 314.494 363.265 315.293C362.936 316.092 363.117 317.014 363.732 317.625C364.343 318.24 365.265 318.422 366.064 318.093C366.864 317.76 367.387 316.98 367.387 316.111C367.387 314.929 366.428 313.97 365.246 313.97L365.246 313.97Z" fill="black"/>
<path d="M57.0273 177.913C53.3216 177.913 49.9797 175.681 48.5594 172.257C47.1423 168.831 47.9261 164.89 50.547 162.269C53.1679 159.649 57.1087 158.865 60.535 160.282C63.9584 161.702 66.1906 165.044 66.1906 168.749C66.1718 173.803 62.0806 177.895 57.0269 177.913L57.0273 177.913ZM57.0273 166.57V166.573C56.162 166.573 55.3814 167.094 55.0491 167.893C54.7168 168.696 54.9017 169.617 55.5131 170.229C56.1244 170.84 57.0461 171.025 57.8455 170.693C58.6481 170.36 59.1685 169.58 59.1685 168.715C59.1497 167.545 58.1966 166.608 57.0272 166.608L57.0273 166.57Z" fill="black"/>
<path d="M429.741 146.701C427.966 146.717 426.461 145.406 426.229 143.647C425.458 137.961 424.298 131.148 423.596 128.655C419.853 127.608 416.053 126.765 412.219 126.125C410.281 126.125 408.708 124.555 408.708 122.614C408.708 120.677 410.281 119.103 412.219 119.103C416.053 118.467 419.853 117.623 423.596 116.576C424.298 114.118 425.458 107.306 426.229 101.584V101.581C426.229 99.6436 427.8 98.0698 429.741 98.0698C431.681 98.0698 433.252 99.6436 433.252 101.581C434.023 107.306 435.183 114.08 435.885 116.573V116.576C439.629 117.62 443.428 118.467 447.263 119.103C449.2 119.103 450.774 120.677 450.774 122.614C450.774 124.555 449.2 126.125 447.263 126.125C443.428 126.765 439.629 127.608 435.885 128.655C435.183 131.113 434.023 137.926 433.252 143.647C433.02 145.406 431.515 146.717 429.741 146.701ZM427.493 122.718V122.721C427.991 122.937 428.446 123.248 428.828 123.633C429.226 124.019 429.537 124.486 429.741 125.003C429.944 124.486 430.255 124.019 430.653 123.633C431.035 123.248 431.49 122.937 431.988 122.721C431.49 122.505 431.035 122.194 430.653 121.809C430.255 121.423 429.944 120.956 429.741 120.439C429.537 120.956 429.226 121.423 428.828 121.809C428.443 122.182 427.988 122.48 427.493 122.686V122.718Z" fill="black"/>
<path d="M29.074 61.8669C27.334 61.8888 25.8418 60.6348 25.5627 58.9168C24.6222 52.2548 23.2366 45.6616 21.4182 39.1848C15.5713 37.2286 9.58669 35.7143 3.51124 34.6547C1.57376 34.6547 0 33.0841 0 31.1435C0 29.206 1.57376 27.6322 3.51124 27.6322C9.5838 26.5851 15.5715 25.0834 21.4182 23.1397C23.249 16.6972 24.6441 10.1389 25.5972 3.51124C25.5972 1.57063 27.1678 0 29.1084 0C31.049 0 32.6196 1.57063 32.6196 3.51124C33.5664 10.1857 34.9615 16.7914 36.7986 23.2777C42.6455 25.2246 48.6333 26.7263 54.7056 27.7734C56.643 27.7734 58.2168 29.344 58.2168 31.2846C58.2168 33.2253 56.643 34.7959 54.7056 34.7959C48.611 35.8085 42.6012 37.2757 36.7264 39.185C34.8956 45.6745 33.5005 52.2765 32.5505 58.9547C32.259 60.6445 30.7888 61.8763 29.074 61.8669ZM19.838 31.2159C25.3149 32.8305 26.2648 33.8493 26.6504 34.3071C27.0361 34.7649 27.8104 35.5705 29.0738 40.2762C30.3372 35.5705 31.146 34.6928 31.4972 34.3071C31.8483 33.9215 32.8672 32.8337 38.3096 31.2159C32.864 29.5983 31.9173 28.6515 31.4972 28.1248C31.0771 27.5981 30.3372 26.8614 29.0738 22.1557C27.8104 26.8614 27.0016 27.7391 26.6504 28.1248C26.2993 28.5104 25.246 29.5982 19.838 31.2159Z" fill="black"/>
<path d="M347.686 44.4174C343.978 44.4174 340.636 42.1853 339.218 38.7587C337.798 35.3352 338.585 31.3944 341.206 28.7739C343.827 26.1533 347.768 25.3661 351.191 26.7863C354.617 28.2033 356.85 31.5453 356.85 35.2542C356.831 40.3047 352.736 44.3994 347.686 44.4179L347.686 44.4174ZM347.686 33.0747C346.818 33.0747 346.037 33.5983 345.705 34.3977C345.376 35.1971 345.558 36.1188 346.172 36.7301C346.783 37.3446 347.705 37.5264 348.505 37.1972C349.304 36.8649 349.827 36.0843 349.827 35.2158C349.827 34.0339 348.868 33.0746 347.686 33.0746L347.686 33.0747Z" fill="black"/>
</svg>
