<svg width="15" height="17" viewBox="0 0 15 17" fill="none" xmlns="http://www.w3.org/2000/svg">
<path d="M13.5512 1.71803L13.0192 15.5501C13.0007 16.0303 12.5911 16.4238 12.1103 16.4238H2.88997C2.40841 16.4238 1.99958 16.0306 1.98111 15.5501L1.44909 1.71803C1.44306 1.55884 1.3092 1.43504 1.15022 1.44107C0.991239 1.4471 0.867228 1.58116 0.873258 1.74014L1.40528 15.5722C1.43563 16.3623 2.09887 17 2.88995 17H12.1103C12.9004 17 13.5647 16.3621 13.595 15.5722L14.127 1.74014C14.133 1.58116 14.009 1.4471 13.85 1.44107C13.6911 1.43504 13.5572 1.55885 13.5512 1.71803H13.5512Z" fill="black"/>
<path d="M7.2124 4.61018V14.4068C7.2124 14.566 7.34144 14.695 7.50062 14.695C7.65981 14.695 7.78884 14.566 7.78884 14.4068V4.61018C7.78884 4.45099 7.65981 4.32196 7.50062 4.32196C7.34144 4.32196 7.2124 4.45099 7.2124 4.61018Z" fill="black"/>
<path d="M4.0426 4.61884L4.33082 14.4155C4.33545 14.5747 4.4683 14.6997 4.62728 14.695C4.78646 14.6904 4.91147 14.5576 4.90685 14.3986L4.61864 4.60196C4.61401 4.44298 4.48136 4.31776 4.32218 4.32258C4.1632 4.32721 4.03798 4.45986 4.0426 4.61904V4.61884Z" fill="black"/>
<path d="M10.3816 4.60136L10.0934 14.398C10.0888 14.557 10.2138 14.6898 10.373 14.6945C10.5319 14.6991 10.6648 14.5741 10.6694 14.4149L10.9576 4.61825C10.9623 4.45906 10.837 4.32641 10.6781 4.32179C10.5189 4.31697 10.3862 4.44218 10.3816 4.60116V4.60136Z" fill="black"/>
<path d="M0.296519 2.01691H14.7033C14.8625 2.01691 14.9915 1.88788 14.9915 1.72889C14.9915 1.56971 14.8625 1.44067 14.7033 1.44067H0.296519C0.137334 1.44067 0.00830078 1.56971 0.00830078 1.72889C0.00830078 1.88787 0.137334 2.01691 0.296519 2.01691Z" fill="black"/>
<path d="M4.88657 1.8358L5.19489 1.06483C5.299 0.804949 5.63665 0.576226 5.91564 0.576226H9.08524C9.36561 0.576226 9.70128 0.803545 9.80599 1.06483L10.1143 1.8358L10.6493 1.62174L10.341 0.850773C10.1489 0.370615 9.60136 0 9.08524 0H5.91564C5.40111 0 4.85139 0.37203 4.65988 0.850773L4.35156 1.62174L4.88657 1.8358Z" fill="black"/>
</svg>
