<svg width="28" height="28" viewBox="0 0 28 28" fill="none" xmlns="http://www.w3.org/2000/svg">
  <g clip-path="url(#clip0)">
    <path d="M28 5.31825C26.9587 5.775 25.8492 6.07775 24.6925 6.22475C25.8825 5.51425 26.7908 4.39775 27.2178 3.052C26.1083 3.7135 24.8832 4.18075 23.5777 4.4415C22.5243 3.31975 21.0227 2.625 19.3848 2.625C16.2067 2.625 13.6482 5.2045 13.6482 8.36675C13.6482 8.82175 13.6868 9.25925 13.7812 9.67575C9.009 9.443 4.78625 7.15575 1.9495 3.6715C1.45425 4.53075 1.16375 5.51425 1.16375 6.573C1.16375 8.561 2.1875 10.3232 3.7135 11.3435C2.79125 11.326 1.8865 11.0583 1.12 10.6365C1.12 10.654 1.12 10.6768 1.12 10.6995C1.12 13.489 3.10975 15.806 5.719 16.3398C5.25175 16.4675 4.7425 16.5287 4.214 16.5287C3.8465 16.5287 3.4755 16.5077 3.12725 16.4307C3.871 18.704 5.9815 20.3752 8.491 20.4295C6.538 21.9573 4.05825 22.8778 1.37375 22.8778C0.903 22.8778 0.4515 22.8568 0 22.799C2.54275 24.4387 5.55625 25.375 8.806 25.375C19.369 25.375 25.144 16.625 25.144 9.0405C25.144 8.78675 25.1353 8.54175 25.123 8.2985C26.2622 7.49 27.2195 6.48025 28 5.31825Z" fill="#fff" />
  </g>
  <defs>
    <clipPath id="clip0">
      <rect width="28" height="28" fill="white" />
    </clipPath>
  </defs>
</svg>