<svg width="28" height="28" viewBox="0 0 28 28" fill="none" xmlns="http://www.w3.org/2000/svg">
  <g clip-path="url(#clip0)">
    <path d="M23.2342 15.2C22.7815 14.6283 22.911 14.374 23.2342 13.863C23.24 13.8572 26.9768 8.69348 27.3618 6.94232L27.3642 6.94115C27.5555 6.30298 27.3642 5.83398 26.439 5.83398H23.3777C22.5983 5.83398 22.239 6.23648 22.0465 6.68682C22.0465 6.68682 20.4878 10.4178 18.2828 12.8363C17.5712 13.5352 17.2422 13.7592 16.8537 13.7592C16.6623 13.7592 16.3648 13.5352 16.3648 12.897V6.94115C16.3648 6.17582 16.1467 5.83398 15.5015 5.83398H10.6878C10.199 5.83398 9.9085 6.19098 9.9085 6.52348C9.9085 7.24915 11.011 7.41598 11.1253 9.45765V13.8875C11.1253 14.8582 10.9492 15.0367 10.5583 15.0367C9.51767 15.0367 6.99183 11.2905 5.495 7.00298C5.19283 6.17115 4.89767 5.83515 4.1125 5.83515H1.05C0.176167 5.83515 0 6.23765 0 6.68798C0 7.48365 1.04067 11.4398 4.83933 16.6665C7.371 20.2342 10.9363 22.1673 14.1797 22.1673C16.1292 22.1673 16.3672 21.738 16.3672 20.9995C16.3672 17.5905 16.191 17.2685 17.1675 17.2685C17.6202 17.2685 18.3995 17.4925 20.2195 19.2133C22.2997 21.2538 22.6415 22.1673 23.8058 22.1673H26.8672C27.7398 22.1673 28.182 21.738 27.9277 20.891C27.3455 19.1095 23.4115 15.445 23.2342 15.2Z" fill="#fff" />
  </g>
  <defs>
    <clipPath id="clip0">
      <rect width="28" height="28" fill="white" />
    </clipPath>
  </defs>
</svg>