<svg width="28" height="29" viewBox="0 0 28 29" fill="none" xmlns="http://www.w3.org/2000/svg">
<path d="M23.2279 0.0115571C23.1391 0.0317381 23.058 0.0773075 22.9949 0.142731L2.46308 20.6745C2.41686 20.7247 2.38203 20.7842 2.36119 20.8493L0.0280365 27.3823C-0.033808 27.5526 0.00850738 27.7433 0.136754 27.8712C0.264677 27.9995 0.455412 28.0418 0.625649 27.9799L7.15866 25.6468C7.22506 25.6217 7.28495 25.582 7.33346 25.5303L27.8652 4.99847C28.0449 4.81651 28.0449 4.52389 27.8652 4.34227L23.6654 0.142414C23.5524 0.0255641 23.3868 -0.0242401 23.2279 0.0112405V0.0115571ZM23.3301 1.13456L26.8592 4.67787L24.7301 6.80696L21.1865 3.2779L23.3301 1.13456ZM20.5302 3.93418L24.0593 7.47783L7.01303 24.5241L3.46938 20.9804L20.5302 3.93418ZM2.98816 21.827L6.15268 24.9912L1.2383 26.7557L2.98816 21.827Z" fill="black"/>
</svg>
