<svg width="16" height="10" viewBox="0 0 16 10" fill="none" xmlns="http://www.w3.org/2000/svg">
<path d="M7.92113 2.3374C6.45356 2.3374 5.25879 3.53217 5.25879 4.99974C5.25879 6.46731 6.45356 7.66208 7.92113 7.66208C9.3887 7.66208 10.5835 6.46731 10.5835 4.99974C10.5835 3.53217 9.3887 2.3374 7.92113 2.3374ZM7.92113 7.01273C6.812 7.01273 5.90814 6.10887 5.90814 4.99974C5.90814 3.89061 6.812 2.98675 7.92113 2.98675C9.03026 2.98675 9.93411 3.89061 9.93411 4.99974C9.93411 6.10887 9.03026 7.01273 7.92113 7.01273Z" fill="black"/>
<path d="M14.7267 3.40256C13.1281 1.27276 10.5838 0 7.92146 0C5.25913 0 2.71478 1.27276 1.11627 3.40256L0.0642468 4.80519C-0.0214156 4.92072 -0.0214156 5.08059 0.0642468 5.1961L1.11627 6.59874C2.71486 8.72723 5.25913 10 7.92146 10C10.5838 10 13.1281 8.72853 14.7267 6.59874L15.7787 5.1961C15.8643 5.08058 15.8643 4.92071 15.7787 4.80519L14.7267 3.40256ZM14.2072 6.20783C12.7305 8.17662 10.3812 9.35065 7.92146 9.35065C5.46172 9.35065 3.11219 8.17659 1.63575 6.20783L0.729256 5L1.63575 3.79217C3.1123 1.82471 5.46172 0.649351 7.92146 0.649351C10.3812 0.649351 12.7307 1.82341 14.2072 3.79217L15.1137 5L14.2072 6.20783Z" fill="black"/>
</svg>
