<svg width="127" height="54" viewBox="0 0 127 54" fill="none" xmlns="http://www.w3.org/2000/svg">
<path d="M25.8052 20.8018V43.3018H24.8152V22.2418L14.1952 43.7218L3.63523 21.9718V43.3018H2.64523V20.8018H4.05523L14.1952 41.6818L24.4252 20.8018H25.8052ZM35.638 49.2718C33.398 49.2718 31.628 48.4718 30.328 46.8718V45.3418C30.988 46.3818 31.738 47.1518 32.578 47.6518C33.418 48.1718 34.398 48.4318 35.518 48.4318C36.658 48.4318 37.628 48.1918 38.428 47.7118C39.248 47.2318 39.868 46.5718 40.288 45.7318C40.708 44.9118 40.918 43.9918 40.918 42.9718V40.6918C40.438 41.6318 39.708 42.3618 38.728 42.8818C37.768 43.3818 36.718 43.6318 35.578 43.6318C34.438 43.6318 33.428 43.3818 32.548 42.8818C31.668 42.3818 30.978 41.6818 30.478 40.7818C29.998 39.8818 29.758 38.8418 29.758 37.6618V29.8018H30.718V37.6618C30.718 38.7418 30.938 39.6718 31.378 40.4518C31.838 41.2118 32.438 41.7918 33.178 42.1918C33.918 42.5918 34.728 42.7918 35.608 42.7918C36.568 42.7918 37.458 42.5618 38.278 42.1018C39.098 41.6218 39.738 40.9918 40.198 40.2118C40.678 39.4118 40.918 38.5618 40.918 37.6618V29.8018H41.878V42.8818C41.878 44.0818 41.628 45.1618 41.128 46.1218C40.648 47.1018 39.938 47.8718 38.998 48.4318C38.058 48.9918 36.938 49.2718 35.638 49.2718ZM72.1981 20.8018H73.1581C74.7381 20.8018 75.8981 21.1718 76.6381 21.9118C77.3781 22.6318 77.7481 23.7018 77.7481 25.1218C77.7481 25.9418 77.5081 26.7318 77.0281 27.4918C76.5481 28.2318 75.9681 28.7318 75.2881 28.9918C77.0081 29.2718 78.3381 29.9918 79.2781 31.1518C80.2181 32.3118 80.6881 33.8318 80.6881 35.7118C80.6881 37.2118 80.3581 38.5418 79.6981 39.7018C79.0381 40.8418 78.1281 41.7318 76.9681 42.3718C75.8281 42.9918 74.5581 43.3018 73.1581 43.3018H72.1981V20.8018ZM73.3981 28.7218C74.3581 28.7218 75.1681 28.3718 75.8281 27.6718C76.4881 26.9718 76.8181 26.1118 76.8181 25.0918C76.8181 23.9518 76.5381 23.0918 75.9781 22.5118C75.4381 21.9318 74.5781 21.6418 73.3981 21.6418H73.1581V28.7218H73.3981ZM73.3981 42.4618C74.5781 42.4618 75.6481 42.1818 76.6081 41.6218C77.5681 41.0418 78.3281 40.2418 78.8881 39.2218C79.4481 38.2018 79.7281 37.0518 79.7281 35.7718C79.7281 33.7118 79.1781 32.1618 78.0781 31.1218C76.9981 30.0618 75.4381 29.5318 73.3981 29.5318H73.1581V42.4618H73.3981ZM88.9477 43.5718C88.0077 43.5718 87.1477 43.3618 86.3677 42.9418C85.5877 42.5018 84.9677 41.8918 84.5077 41.1118C84.0477 40.3318 83.8177 39.4618 83.8177 38.5018V20.8018H84.7777V38.5018C84.7777 39.3018 84.9577 40.0218 85.3177 40.6618C85.6977 41.3018 86.2077 41.8118 86.8477 42.1918C87.4877 42.5518 88.1877 42.7318 88.9477 42.7318V43.5718ZM97.562 43.7818C96.202 43.7818 94.972 43.4518 93.872 42.7918C92.772 42.1118 91.912 41.2218 91.292 40.1218C90.672 39.0018 90.362 37.7918 90.362 36.4918C90.362 35.2118 90.672 34.0218 91.292 32.9218C91.932 31.8218 92.792 30.9518 93.872 30.3118C94.972 29.6518 96.192 29.3218 97.532 29.3218C98.852 29.3218 100.052 29.6518 101.132 30.3118C102.232 30.9518 103.092 31.8218 103.712 32.9218C104.332 34.0218 104.642 35.2118 104.642 36.4918C104.642 37.8318 104.342 39.0618 103.742 40.1818C103.142 41.2818 102.302 42.1618 101.222 42.8218C100.162 43.4618 98.942 43.7818 97.562 43.7818ZM97.562 42.9418C98.702 42.9418 99.742 42.6518 100.682 42.0718C101.622 41.4918 102.352 40.7218 102.872 39.7618C103.412 38.7818 103.682 37.7118 103.682 36.5518C103.682 35.4118 103.412 34.3518 102.872 33.3718C102.332 32.3918 101.592 31.6118 100.652 31.0318C99.712 30.4518 98.672 30.1618 97.532 30.1618C96.392 30.1618 95.342 30.4618 94.382 31.0618C93.442 31.6418 92.692 32.4218 92.132 33.4018C91.592 34.3818 91.322 35.4418 91.322 36.5818C91.322 37.7218 91.592 38.7818 92.132 39.7618C92.692 40.7218 93.442 41.4918 94.382 42.0718C95.342 42.6518 96.402 42.9418 97.562 42.9418ZM118.856 21.0718C116.876 21.0718 115.066 21.5818 113.426 22.6018C111.806 23.6018 110.516 24.9518 109.556 26.6518C108.616 28.3318 108.146 30.1418 108.146 32.0818C108.146 34.0418 108.626 35.8618 109.586 37.5418C110.546 39.2218 111.816 40.5618 113.396 41.5618C114.996 42.5418 116.716 43.0318 118.556 43.0318C119.636 43.0318 120.596 42.9318 121.436 42.7318C122.296 42.5318 123.116 42.2118 123.896 41.7718V34.7218H116.456V33.8518H124.886V41.1418L124.946 41.1118V42.2218C123.986 42.8018 122.996 43.2218 121.976 43.4818C120.976 43.7618 119.876 43.9018 118.676 43.9018C116.576 43.9018 114.646 43.3918 112.886 42.3718C111.126 41.3318 109.726 39.9118 108.686 38.1118C107.666 36.2918 107.156 34.2518 107.156 31.9918C107.156 29.8118 107.686 27.8218 108.746 26.0218C109.826 24.2218 111.256 22.8018 113.036 21.7618C114.836 20.7218 116.746 20.2018 118.766 20.2018C120.166 20.2018 121.276 20.3318 122.096 20.5918C122.916 20.8318 123.866 21.2618 124.946 21.8818V22.9918C123.926 22.2918 122.976 21.8018 122.096 21.5218C121.236 21.2218 120.156 21.0718 118.856 21.0718Z" fill="black"/>
<path d="M48.3267 36.9526C45.9882 34.1233 43.3707 31.5523 40.5173 29.205C38.2635 27.3468 35.8474 25.6457 33.3029 24.0559C32.4588 23.5309 31.5959 23.0247 30.7218 22.5226C30.4005 22.3395 30.0815 22.1588 29.7601 21.9834C29.57 21.8781 29.3881 21.7727 29.1944 21.6721C29.3681 21.7498 29.5352 21.8316 29.7006 21.9093C30.0974 22.0994 30.4911 22.2872 30.8802 22.4849C31.7796 22.9299 32.6642 23.3955 33.5206 23.8769C34.4058 24.3755 35.2734 24.887 36.121 25.4143C37.7991 26.4656 39.3965 27.5856 40.9233 28.7729C42.104 29.6928 43.2354 30.6564 44.3284 31.6641C46.8005 33.9484 49.0519 36.4535 51.0555 39.1858C52.0485 40.539 52.9856 41.9468 53.8702 43.4048C54.3023 44.1206 54.7514 44.8157 55.1999 45.5103C54.9273 26.0846 41.9742 19.8283 24 20.2457C29.2179 21.8726 33.0279 28.6308 34.6989 32.9918C40.1358 47.144 46.8052 45.7749 54.6324 46.8608C53.8054 45.0814 53.0367 43.5523 52.7471 43.0908C51.4004 40.923 49.9259 38.8829 48.3261 36.9524L48.3267 36.9526Z" fill="#A99260"/>
<path d="M59.5902 46.0552C59.7238 45.2412 59.8668 44.4261 60.011 43.6438C59.7809 43.7385 59.5501 43.8327 59.3206 43.9322C59.1517 43.3212 59.0051 42.7256 58.8597 42.1305C58.1593 44.2435 57.4748 46.3613 57.0986 48.6632C56.5129 47.5655 55.8608 46.5349 55.1992 45.5107C55.2051 45.9833 55.2122 46.4548 55.2034 46.9428C55.0109 46.9133 54.822 46.8868 54.6318 46.8604C54.8908 47.4172 55.1551 47.9993 55.4123 48.5802C56.3205 50.6356 55.802 52.5868 57.2999 53.6191C57.7978 53.9617 58.7714 53.0858 58.8549 52.9905C60.3994 51.207 59.1157 48.9262 59.5901 46.0551L59.5902 46.0552Z" fill="#A99260"/>
<path d="M58.8591 42.13C59.1964 41.1124 59.5378 40.0971 59.8474 39.0587C60.4843 36.9415 61.2024 34.8709 62.0082 32.8502C63.6369 28.7713 65.6468 24.8988 68.0095 21.2278C69.0542 19.611 70.1613 18.0342 71.3426 16.4972C72.8724 14.5118 74.5146 12.5872 76.278 10.7213C77.1727 9.78547 78.0955 8.86254 79.0433 7.95017C79.9615 7.06669 80.9197 6.1961 81.9056 5.34506C82.33 4.97188 82.7644 4.60579 83.1976 4.23968C83.3818 4.08842 83.5672 3.93067 83.7562 3.77881C83.5466 3.96893 83.3512 4.15963 83.1476 4.35152C82.8026 4.67642 82.4589 5.00544 82.1163 5.34036C81.1817 6.25445 80.2634 7.17037 79.3741 8.10203C76.6965 10.922 74.2168 13.8426 71.9908 16.9057C69.1708 20.7751 66.7228 24.8529 64.7063 29.1596C63.326 32.1025 62.1394 35.1421 61.1511 38.2987C60.9375 38.9697 60.4684 41.1381 60.0093 43.6419C69.4809 39.7401 78.2928 39.2941 80.5229 19.7697C81.2045 13.7548 83.7919 4.03712 89.8132 0.301758C67.1253 5.61264 52.8996 17.6662 58.859 42.1306L58.8591 42.13Z" fill="#A99260"/>
</svg>
