<svg width="16" height="16" viewBox="0 0 16 16" fill="none" xmlns="http://www.w3.org/2000/svg">
<path d="M14.8727 6.3668C14.1788 5.43238 13.3027 4.67191 12.3243 4.09331L15.905 0.469883L15.4406 0L11.7235 3.76146C10.5734 3.20003 9.3024 2.88942 8.00004 2.88942C5.31129 2.88942 2.74171 4.18883 1.12734 6.36544L0.064884 7.80023C-0.021628 7.91829 -0.021628 8.08168 0.064884 8.19973L1.12734 9.6332C1.82121 10.5676 2.69731 11.3281 3.67571 11.9067L0.0950502 15.5301L0.559388 16L4.27645 12.2385C5.42656 12.7986 6.6976 13.1093 7.99996 13.1093C10.6887 13.1093 13.2583 11.8098 14.8727 9.63323L15.9351 8.19977C16.0216 8.08171 16.0216 7.91832 15.9351 7.80027L14.8727 6.3668ZM1.6519 9.23373L0.736414 7.99936L1.6519 6.76498C3.1431 4.75427 5.51582 3.55308 7.99996 3.55308C9.12403 3.55308 10.2191 3.81053 11.2265 4.26456L9.64604 5.86378C9.18961 5.50279 8.62296 5.2785 7.99996 5.2785C6.51784 5.2785 5.31122 6.49953 5.31122 7.99936C5.31122 8.6298 5.53284 9.20321 5.88959 9.66509L4.15436 11.421C3.18911 10.8782 2.32737 10.1441 1.65197 9.23373H1.6519ZM10.0329 7.99936C10.0329 9.13286 9.1214 10.0566 7.99996 10.0566C7.55788 10.0566 7.15137 9.9092 6.81691 9.66509L9.64604 6.80218C9.88727 7.14066 10.0329 7.552 10.0329 7.99936ZM5.96701 7.99936C5.96701 6.86585 6.87852 5.94212 7.99996 5.94212C8.44204 5.94212 8.84856 6.08951 9.18301 6.33362L6.35389 9.19653C6.11265 8.85806 5.96701 8.44671 5.96701 7.99936ZM14.348 9.23373C12.8567 11.2458 10.4841 12.4456 7.99996 12.4456C6.8759 12.4456 5.7808 12.1882 4.77339 11.7342L6.35389 10.1348C6.81032 10.4959 7.37696 10.7202 7.99996 10.7202C9.48209 10.7202 10.6887 9.49918 10.6887 7.99936C10.6887 7.36891 10.4671 6.7955 10.1103 6.33362L11.8456 4.57767C12.811 5.11923 13.6739 5.85323 14.3494 6.76498L15.2634 7.99936L14.348 9.23373Z" fill="black"/>
</svg>
