<svg width="13" height="13" viewBox="0 0 13 13" fill="none" xmlns="http://www.w3.org/2000/svg">
<path d="M1.21091 6.17498H12.9106C12.848 6.06661 12.7554 5.97857 12.6441 5.92156L0.944428 0.0717053C0.834309 0.015232 0.71037 -0.00870776 0.587197 0.0028248C0.464018 0.014359 0.346609 0.0607132 0.248881 0.136667C0.152798 0.212074 0.0797836 0.313054 0.0384336 0.427961C-0.00302517 0.542978 -0.0110757 0.667242 0.0149297 0.786613L1.21091 6.17498Z" fill="black"/>
<path d="M1.21073 6.82528L0.0276997 12.2136C-0.014085 12.408 0.0354254 12.611 0.162193 12.7643C0.288854 12.9176 0.478837 13.0044 0.67776 13C0.77972 13.0013 0.880263 12.9767 0.970253 12.9285L12.67 7.07862C12.7813 7.02161 12.8739 6.93358 12.9364 6.8252L1.21073 6.82528Z" fill="black"/>
</svg>
